<?xml version="1.0" encoding="utf-8"?>
<!-- Generator: Adobe Illustrator 15.0.0, SVG Export Plug-In . SVG Version: 6.00 Build 0)  -->
<!DOCTYPE svg PUBLIC "-//W3C//DTD SVG 1.1//EN" "http://www.w3.org/Graphics/SVG/1.1/DTD/svg11.dtd">
<svg version="1.1" id="Calque_1" xmlns="http://www.w3.org/2000/svg" xmlns:xlink="http://www.w3.org/1999/xlink" x="0px" y="0px"
	 width="178px" height="248px" viewBox="0 0 178 248" enable-background="new 0 0 178 248" xml:space="preserve">
<circle fill-rule="evenodd" clip-rule="evenodd" fill="#26AEE2" cx="90.007" cy="87.431" r="75.875"/>
<path fill-rule="evenodd" clip-rule="evenodd" fill="#FFFFFF" d="M162.216,95.783c-1.165,0.836-5.316-3.172-16.868-3.644
	c-11.551-0.472-13.679,3.387-31.175,6.602c-17.492,3.211-29.226-1.194-40.613,1.38c-11.383,2.578-21.965,13.426-39.405,21.583
	c-17.443,8.16-33.932,8.5-33.932,8.5s16.916,1.577,29.907-3.086c12.991-4.667,21.299-9.521,32.724-16.151
	c11.425-6.633,13.429-6.043,35.757-6.651c22.326-0.609,25.962-6.703,37.189-9.088c11.225-2.385,21.756,1.459,26.492,4.622
	c4.739,3.168,4.868-4.667,1.53-8.03c-3.34-3.361-7.48-2.583-7.48-2.583C160.282,90.005,163.383,94.948,162.216,95.783z
	 M144.914,76.283c0,0-0.469-0.835-2.359-2.362c-1.888-1.523-3.192-1.23-3.192-1.23l-1.227-3.104l3.448,1.966L144.914,76.283z
	 M141.648,86.739c5.881-0.015,9.722-2.7,9.722-2.7s1.248-4.25-1.68-8.418c-2.926-4.166-0.813-9.516-8.039-13.732
	c-7.226-4.213-15.602-6.581-15.602-6.581S118.19,62.406,95.6,72.51c-22.587,10.101-39.661,11.93-54.632,5.312
	c-14.963-6.617-15.072-14.78-11.878-20.276c3.199-5.495,16.721-7.093,14.488-11.367c-2.234-4.275-8.317-4.269-14.828,0.027
	c-6.514,4.296-12.848,19.752,0.929,29.948c13.776,10.193,28.188,12.096,28.188,12.096s-7.106,2.302-14.075,13.4
	c-6.965,11.096-18.384,18.219-18.384,18.219s10.243-3.805,17.834-12.745c7.587-8.941,10.84-14.131,37.53-22.168
	c26.686-8.033,44.371-21.689,44.371-21.689s-0.109,1.096,0.778,3.209c0.892,2.114,2.354,2.553,2.354,2.553s-0.501-0.841-0.732-3.65
	c-0.231-2.812,0.594-6.052,0.78-6.044c0.186,0.007,11.299,3.136,14.429,6.696c3.125,3.561,3.131,6.784,5.469,9.915
	c2.337,3.128,2.073,5.753,2.073,5.753s-4.123,3.138-6.832,3.121c-2.702-0.015-3.187-0.603-3.187-0.603s0.884-3.11-3.897-3.211
	c-4.779-0.102-7.714,0.818-7.714,0.818C139.261,83.291,135.765,86.753,141.648,86.739z"/>
<g>
	<path fill="#3DAEE4" d="M1.069,186.545h2.604v3.745c2.073-2.847,4.77-4.271,8.091-4.271c2.935,0,5.423,1.043,7.465,3.128
		c2.041,2.085,3.061,4.597,3.061,7.531c0,2.972-0.999,5.5-2.996,7.585c-2.023,2.123-4.509,3.183-7.456,3.183
		c-3.234,0-5.956-1.341-8.166-4.025v10.957H1.069V186.545z M11.558,188.547c-2.322,0-4.249,0.801-5.778,2.397
		c-1.53,1.602-2.293,3.566-2.293,5.9c0,3.247,1.341,5.619,4.025,7.116c1.287,0.726,2.648,1.088,4.083,1.088
		c1.449,0,2.797-0.375,4.045-1.123c1.212-0.736,2.183-1.755,2.913-3.054c0.731-1.298,1.096-2.666,1.096-4.101
		c0-1.449-0.362-2.823-1.086-4.12c-0.725-1.302-1.709-2.307-2.95-3.027C14.371,188.907,13.019,188.547,11.558,188.547z"/>
	<path fill="#3DAEE4" d="M36.843,186.019c3.134,0,5.732,1.137,7.792,3.408c1.873,2.074,2.809,4.528,2.809,7.363
		c0,2.996-1.018,5.521-3.053,7.576c-2.036,2.052-4.551,3.079-7.548,3.079s-5.516-1.022-7.558-3.069
		c-2.042-2.05-3.062-4.577-3.062-7.586c0-2.821,0.937-5.27,2.81-7.345C31.094,187.161,33.697,186.019,36.843,186.019z
		 M36.833,188.586c-2.232,0-4.112,0.813-5.64,2.443c-1.528,1.631-2.292,3.568-2.292,5.815c0,1.45,0.344,2.805,1.029,4.064
		c0.71,1.301,1.678,2.299,2.901,2.997c1.22,0.7,2.556,1.049,4.002,1.049c3.094,0,5.382-1.329,6.867-3.989
		c0.71-1.272,1.066-2.646,1.066-4.121c0-2.247-0.765-4.185-2.292-5.815C40.947,189.4,39.066,188.586,36.833,188.586z"/>
	<path fill="#3DAEE4" d="M62.598,188.772l-1.69,1.742c-1.4-1.361-2.771-2.042-4.11-2.042c-0.813,0-1.532,0.269-2.159,0.806
		c-0.625,0.54-0.938,1.205-0.938,2.004c0,1.35,1.299,2.7,3.896,4.047c1.599,0.823,2.758,1.609,3.483,2.36
		c1.012,1.047,1.518,2.304,1.518,3.764c0,1.724-0.594,3.154-1.78,4.29c-1.186,1.135-2.647,1.703-4.382,1.703
		c-2.51,0-4.514-0.961-6.013-2.883l1.648-1.875c1.337,1.512,2.753,2.268,4.252,2.268c0.985,0,1.863-0.323,2.631-0.964
		c0.768-0.646,1.152-1.452,1.152-2.426c0-0.987-0.457-1.854-1.367-2.606c-0.449-0.372-1.336-0.896-2.659-1.57
		c-1.511-0.775-2.616-1.541-3.316-2.304c-0.95-1.025-1.422-2.248-1.422-3.672c0-1.586,0.534-2.882,1.604-3.885
		c1.069-1.007,2.397-1.51,3.987-1.51C58.807,186.019,60.696,186.936,62.598,188.772z"/>
	<path fill="#3DAEE4" d="M69.49,178.977h2.641v7.568h4.158v2.245h-4.158v18.131H69.49v-18.131h-3.578v-2.245h3.578V178.977z"/>
	<path fill="#3DAEE4" d="M79.885,186.545h2.64v9.524c0,2.35,0.125,3.949,0.375,4.798c0.388,1.302,1.136,2.312,2.249,3.038
		c1.049,0.676,2.273,1.013,3.671,1.013c1.359,0,2.553-0.318,3.576-0.957c1.086-0.687,1.836-1.649,2.248-2.888
		c0.262-0.787,0.395-2.454,0.395-5.004v-9.524h2.678v10.002c0,2.297-0.219,4.119-0.655,5.467c-0.599,1.836-1.691,3.24-3.277,4.216
		c-1.324,0.81-2.979,1.216-4.964,1.216c-3.909,0-6.556-1.528-7.942-4.588c-0.661-1.436-0.993-3.602-0.993-6.499V186.545z"/>
	<path fill="#3DAEE4" d="M102.53,186.545h2.679v2.977c1.586-2.336,3.353-3.503,5.3-3.503c0.726,0,1.501,0.231,2.323,0.693
		l-1.367,2.21c-0.548-0.249-1.011-0.375-1.385-0.375c-2.098,0-3.561,1.476-4.384,4.426c-0.327,1.162-0.487,3.512-0.487,7.049v6.899
		h-2.679V186.545z"/>
	<path fill="#CAC7C6" d="M135.383,186.545v20.376h-2.586v-3.501c-2.209,2.685-4.938,4.025-8.184,4.025
		c-2.947,0-5.432-1.06-7.456-3.183c-1.997-2.085-2.994-4.613-2.994-7.585c0-2.935,1.019-5.446,3.06-7.531
		c2.043-2.085,4.528-3.128,7.463-3.128c3.361,0,6.063,1.425,8.111,4.271v-3.745H135.383z M124.894,188.547
		c-3.122,0-5.45,1.367-6.985,4.104c-0.738,1.297-1.105,2.671-1.105,4.12c0,1.448,0.367,2.825,1.105,4.13
		c0.736,1.302,1.724,2.321,2.968,3.051c1.244,0.733,2.576,1.097,3.999,1.097c1.437,0,2.797-0.362,4.083-1.088
		c1.287-0.724,2.275-1.703,2.968-2.939c0.693-1.235,1.04-2.627,1.04-4.177c0-2.334-0.766-4.299-2.294-5.9
		C129.142,189.348,127.217,188.547,124.894,188.547z"/>
	<path fill="#CAC7C6" d="M140.871,178.677h2.624v28.244h-2.624V178.677z"/>
	<path fill="#CAC7C6" d="M149.862,178.152c0.599,0,1.108,0.214,1.534,0.641c0.424,0.423,0.639,0.934,0.639,1.534
		c0,0.599-0.215,1.108-0.639,1.528c-0.426,0.415-0.936,0.625-1.534,0.625c-0.588,0-1.094-0.211-1.519-0.638
		c-0.425-0.424-0.637-0.929-0.637-1.516c0-0.601,0.21-1.111,0.628-1.534C148.754,178.366,149.261,178.152,149.862,178.152z
		 M148.549,186.545h2.643v20.376h-2.643V186.545z"/>
	<path fill="#CAC7C6" d="M176.945,186.545v20.376h-2.583v-3.501c-2.212,2.685-4.939,4.025-8.188,4.025
		c-2.945,0-5.43-1.06-7.452-3.183c-1.999-2.085-2.996-4.613-2.996-7.585c0-2.935,1.021-5.446,3.062-7.531
		c2.04-2.085,4.528-3.128,7.463-3.128c3.357,0,6.062,1.425,8.111,4.271v-3.745H176.945z M166.456,188.547
		c-3.121,0-5.449,1.367-6.985,4.104c-0.738,1.297-1.105,2.671-1.105,4.12c0,1.448,0.367,2.825,1.105,4.13
		c0.736,1.302,1.727,2.321,2.968,3.051c1.244,0.733,2.575,1.097,3.997,1.097c1.438,0,2.798-0.362,4.087-1.088
		c1.284-0.724,2.273-1.703,2.968-2.939c0.693-1.235,1.039-2.627,1.039-4.177c0-2.334-0.766-4.299-2.293-5.9
		C170.704,189.348,168.778,188.547,166.456,188.547z"/>
</g>
<g>
	<path fill="#C2BFBF" d="M1.292,230.621l1.314-9.252l0.148,0.002l3.761,7.596l3.725-7.596l0.149-0.002l1.327,9.252H10.81
		l-0.911-6.612l-3.268,6.612H6.398l-3.309-6.655l-0.901,6.655H1.292z"/>
	<path fill="#C2BFBF" d="M19.205,221.137c1.392,0,2.559,0.458,3.502,1.377c0.951,0.931,1.428,2.092,1.428,3.479
		c0,1.361-0.469,2.516-1.405,3.453c-0.938,0.938-2.087,1.406-3.449,1.406c-1.362,0-2.517-0.463-3.465-1.388
		c-0.948-0.928-1.421-2.068-1.421-3.428c0-0.88,0.211-1.7,0.634-2.457c0.423-0.759,1.012-1.362,1.766-1.801
		C17.539,221.351,18.341,221.137,19.205,221.137z M19.25,222.043c-0.692,0-1.343,0.179-1.95,0.534
		c-0.609,0.354-1.084,0.838-1.428,1.439c-0.344,0.604-0.515,1.278-0.515,2.02c0,1.095,0.375,2.02,1.125,2.778
		c0.75,0.76,1.673,1.14,2.768,1.14c0.712,0,1.373-0.172,1.984-0.518c0.609-0.342,1.085-0.817,1.429-1.427
		c0.344-0.607,0.517-1.279,0.517-2.018c0-1.524-0.652-2.663-1.956-3.415C20.602,222.222,19.945,222.043,19.25,222.043z"/>
	<path fill="#C2BFBF" d="M27.245,230.621v-9.252l0.199,0.003l6.153,7.084v-7.087h0.911v9.252H34.3l-6.099-6.992v6.992H27.245z"/>
	<path fill="#C2BFBF" d="M42.835,230.621v-9.252l0.198,0.003l6.153,7.084v-7.087h0.912v9.252H49.89l-6.099-6.992v6.992H42.835z"/>
	<path fill="#C2BFBF" d="M58.013,221.137c1.392,0,2.559,0.458,3.502,1.377c0.951,0.931,1.427,2.092,1.427,3.479
		c0,1.361-0.468,2.516-1.405,3.453c-0.938,0.938-2.087,1.406-3.449,1.406c-1.362,0-2.518-0.463-3.465-1.388
		c-0.947-0.928-1.421-2.068-1.421-3.428c0-0.88,0.212-1.7,0.636-2.457c0.423-0.759,1.012-1.362,1.766-1.801
		C56.346,221.351,57.149,221.137,58.013,221.137z M58.057,222.043c-0.692,0-1.341,0.179-1.949,0.534
		c-0.608,0.354-1.084,0.838-1.428,1.439c-0.343,0.604-0.515,1.278-0.515,2.02c0,1.095,0.375,2.02,1.125,2.778
		c0.75,0.76,1.674,1.14,2.768,1.14c0.712,0,1.375-0.172,1.984-0.518c0.61-0.342,1.086-0.817,1.43-1.427
		c0.344-0.607,0.516-1.279,0.516-2.018c0-1.524-0.651-2.663-1.956-3.415C59.411,222.222,58.753,222.043,58.057,222.043z"/>
	<path fill="#C2BFBF" d="M66.079,221.369h0.923v5.587c0,0.641,0.013,1.053,0.038,1.238c0.097,0.721,0.461,1.229,1.095,1.526
		c0.347,0.17,0.698,0.254,1.049,0.254c0.654,0,1.183-0.245,1.584-0.738c0.188-0.228,0.328-0.507,0.415-0.834
		c0.063-0.235,0.095-0.719,0.095-1.446v-5.587h0.926v5.587c0,0.787-0.065,1.399-0.19,1.836c-0.181,0.607-0.517,1.104-1.009,1.485
		c-0.494,0.382-1.083,0.575-1.771,0.575c-0.696,0-1.308-0.156-1.836-0.477c-0.569-0.349-0.954-0.839-1.15-1.474
		c-0.113-0.362-0.169-1.013-0.169-1.946V221.369z"/>
	<path fill="#C2BFBF" d="M75.024,221.369h0.998l3.07,7.155l3.117-7.155h1.007l-4.023,9.252h-0.202L75.024,221.369z"/>
	<path fill="#C2BFBF" d="M86.025,221.369h5.302v0.913H86.95v2.894h4.339v0.906H86.95v3.627h4.339v0.912h-5.264V221.369z"/>
	<path fill="#C2BFBF" d="M97.952,221.369l4.312,9.252h-0.997l-1.449-3.042H95.83l-1.442,3.042h-1.033l4.371-9.252H97.952z
		 M97.838,223.329l-1.588,3.355h3.167L97.838,223.329z"/>
	<path fill="#C2BFBF" d="M104.978,221.369h0.927v5.587c0,0.641,0.011,1.053,0.037,1.238c0.097,0.721,0.46,1.229,1.094,1.526
		c0.35,0.17,0.698,0.254,1.051,0.254c0.653,0,1.183-0.245,1.585-0.738c0.188-0.228,0.325-0.507,0.414-0.834
		c0.062-0.235,0.095-0.719,0.095-1.446v-5.587h0.924v5.587c0,0.787-0.062,1.399-0.188,1.836c-0.182,0.607-0.518,1.104-1.012,1.485
		c-0.49,0.382-1.079,0.575-1.769,0.575c-0.695,0-1.309-0.156-1.836-0.477c-0.572-0.349-0.956-0.839-1.151-1.474
		c-0.112-0.362-0.171-1.013-0.171-1.946V221.369z"/>
	<path fill="#C2BFBF" d="M118.494,228.897l0.787-0.471c0.552,1.02,1.192,1.528,1.917,1.528c0.687,0,1.187-0.267,1.499-0.8
		c0.141-0.242,0.212-0.499,0.212-0.771c0-0.312-0.104-0.614-0.313-0.913c-0.271-0.39-0.779-0.86-1.523-1.413
		c-0.759-0.563-1.26-1.006-1.502-1.333c-0.327-0.442-0.491-0.914-0.491-1.418c0-0.855,0.369-1.482,1.105-1.885
		c0.349-0.189,0.729-0.284,1.14-0.284c0.881,0,1.689,0.505,2.43,1.516l-0.756,0.574c-0.281-0.369-0.521-0.635-0.717-0.788
		c-0.294-0.23-0.618-0.347-0.975-0.347s-0.655,0.11-0.893,0.323c-0.253,0.216-0.38,0.501-0.38,0.853
		c0,0.416,0.196,0.816,0.586,1.204c0.112,0.109,0.511,0.416,1.196,0.924c0.629,0.466,1.097,0.885,1.407,1.259
		c0.458,0.555,0.686,1.126,0.686,1.708c0,0.7-0.264,1.293-0.792,1.78c-0.51,0.475-1.122,0.709-1.83,0.709
		C120.137,230.852,119.206,230.202,118.494,228.897z"/>
	<path fill="#C2BFBF" d="M131.514,221.137c1.393,0,2.561,0.458,3.505,1.377c0.949,0.931,1.427,2.092,1.427,3.479
		c0,1.361-0.47,2.516-1.406,3.453c-0.936,0.938-2.088,1.406-3.449,1.406c-1.363,0-2.518-0.463-3.465-1.388
		c-0.946-0.928-1.42-2.068-1.42-3.428c0-0.88,0.209-1.7,0.635-2.457c0.421-0.759,1.012-1.362,1.767-1.801
		C129.848,221.351,130.65,221.137,131.514,221.137z M131.559,222.043c-0.69,0-1.342,0.179-1.949,0.534
		c-0.608,0.354-1.085,0.838-1.427,1.439c-0.345,0.604-0.517,1.278-0.517,2.02c0,1.095,0.376,2.02,1.126,2.778
		c0.751,0.76,1.674,1.14,2.767,1.14c0.712,0,1.375-0.172,1.983-0.518c0.611-0.342,1.088-0.817,1.432-1.427
		c0.343-0.607,0.514-1.279,0.514-2.018c0-1.524-0.651-2.663-1.953-3.415C132.913,222.222,132.254,222.043,131.559,222.043z"/>
	<path fill="#C2BFBF" d="M139.582,221.369h0.922v5.587c0,0.641,0.016,1.053,0.04,1.238c0.097,0.721,0.461,1.229,1.095,1.526
		c0.347,0.17,0.697,0.254,1.048,0.254c0.654,0,1.183-0.245,1.586-0.738c0.188-0.228,0.328-0.507,0.416-0.834
		c0.062-0.235,0.092-0.719,0.092-1.446v-5.587h0.925v5.587c0,0.787-0.063,1.399-0.189,1.836c-0.178,0.607-0.515,1.104-1.01,1.485
		c-0.491,0.382-1.08,0.575-1.767,0.575c-0.696,0-1.309-0.156-1.837-0.477c-0.57-0.349-0.953-0.839-1.15-1.474
		c-0.114-0.362-0.17-1.013-0.17-1.946V221.369z"/>
	<path fill="#C2BFBF" d="M149.23,221.369h4.636v0.913h-3.718v2.894h3.718v0.912h-3.718v4.533h-0.918V221.369z"/>
	<path fill="#C2BFBF" d="M156.724,221.369h4.634v0.913h-3.714v2.894h3.714v0.912h-3.714v4.533h-0.92V221.369z"/>
	<path fill="#C2BFBF" d="M164.218,221.369h0.929v8.36h3.554v0.892h-4.482V221.369z"/>
	<path fill="#C2BFBF" d="M171.423,221.369h5.299v0.913h-4.376v2.894h4.337v0.906h-4.337v3.627h4.337v0.912h-5.26V221.369z"/>
</g>
</svg>
